<?xml version="1.0" encoding="iso-8859-1"?>
<!-- Generator: Adobe Illustrator 19.0.0, SVG Export Plug-In . SVG Version: 6.00 Build 0)  -->
<svg version="1.1" id="Layer_1" xmlns="http://www.w3.org/2000/svg" xmlns:xlink="http://www.w3.org/1999/xlink" x="0px" y="0px"
	 viewBox="0 0 511.999 511.999" style="enable-background:new 0 0 511.999 511.999;" xml:space="preserve">
<g>
	<g>
		<path d="M475.206,47.152l-57.663-20.114v-7.373C417.543,8.805,408.738,0,397.878,0c-10.861,0-19.665,8.805-19.665,19.665v51.61
			c0,10.861,8.805,19.665,19.665,19.665c10.861,0,19.665-8.805,19.665-19.665v-2.581l34.758,12.124v16.388
			c0,76.416-62.169,138.584-138.584,138.584S175.134,173.621,175.134,97.206V80.497l34.581-12.063v3
			c0,10.861,8.805,19.665,19.665,19.665s19.665-8.805,19.665-19.665V19.825c0-10.861-8.805-19.665-19.665-19.665
			s-19.665,8.805-19.665,19.665v6.955l-60.723,21.181c-0.146,0.051-0.281,0.119-0.425,0.173c-0.391,0.147-0.779,0.3-1.158,0.471
			c-0.246,0.11-0.486,0.231-0.728,0.35c-0.32,0.16-0.637,0.325-0.948,0.502c-0.282,0.16-0.555,0.329-0.826,0.502
			c-0.25,0.16-0.498,0.323-0.741,0.493c-0.298,0.21-0.586,0.427-0.87,0.65c-0.206,0.163-0.408,0.326-0.607,0.497
			c-0.287,0.245-0.564,0.498-0.834,0.758c-0.186,0.18-0.37,0.362-0.549,0.548c-0.252,0.262-0.494,0.528-0.73,0.804
			c-0.185,0.215-0.366,0.434-0.541,0.657c-0.203,0.258-0.4,0.521-0.59,0.788c-0.186,0.262-0.366,0.528-0.54,0.801
			c-0.156,0.245-0.307,0.492-0.451,0.743c-0.178,0.308-0.347,0.62-0.509,0.937c-0.119,0.236-0.235,0.473-0.345,0.715
			c-0.155,0.337-0.3,0.676-0.435,1.024c-0.097,0.248-0.188,0.497-0.274,0.749c-0.117,0.338-0.226,0.678-0.324,1.024
			c-0.083,0.29-0.156,0.581-0.224,0.873c-0.073,0.309-0.142,0.62-0.199,0.936c-0.066,0.354-0.117,0.711-0.164,1.069
			c-0.034,0.263-0.067,0.527-0.09,0.794c-0.037,0.416-0.054,0.834-0.063,1.255c-0.004,0.152-0.024,0.302-0.024,0.455v30.677
			c0,91.571,69.544,167.197,158.587,176.86v106.028c0,51.046-41.529,92.574-92.574,92.574c-46.218,0-84.631-34.046-91.484-78.375
			c27.929-8.869,48.226-35.04,48.226-65.867c0-38.1-30.997-69.095-69.095-69.095c-38.101,0-69.096,30.997-69.096,69.095
			c0,31.614,21.35,58.319,50.384,66.501c7.394,65.776,63.349,117.072,131.066,117.072c72.733,0,131.904-59.172,131.904-131.905
			V273.988c88.719-9.973,157.911-85.444,157.911-176.783V66.529C491.632,56.774,484.522,48.701,475.206,47.152z M89.462,358.193
			c-16.414-0.001-29.766-13.353-29.766-29.766c0-16.413,13.353-29.764,29.766-29.764c16.413,0,29.764,13.353,29.764,29.764
			C119.226,344.84,105.873,358.193,89.462,358.193z"/>
	</g>
</g>
<g>
</g>
<g>
</g>
<g>
</g>
<g>
</g>
<g>
</g>
<g>
</g>
<g>
</g>
<g>
</g>
<g>
</g>
<g>
</g>
<g>
</g>
<g>
</g>
<g>
</g>
<g>
</g>
<g>
</g>
</svg>
